<svg width="18" height="19" viewBox="0 0 18 19" fill="none" xmlns="http://www.w3.org/2000/svg">
<path d="M15.2832 14.1211C15.271 14.0707 15.2695 14.0181 15.279 13.967C15.2884 13.916 15.3085 13.8676 15.3379 13.8251C16.2672 12.4936 16.766 10.8993 16.7649 9.26464C16.7649 4.84637 13.1832 1.26465 8.76489 1.26465C4.34661 1.26465 0.764893 4.84637 0.764893 9.26464C0.764893 13.6829 4.34661 17.2646 8.76489 17.2646C10.0791 17.2671 11.3742 16.9429 12.5382 16.32C12.6046 16.2838 12.6822 16.2752 12.7546 16.2963L15.5326 17.1122C15.5877 17.125 15.6451 17.1229 15.6991 17.106C15.7531 17.089 15.8017 17.0579 15.8402 17.0157C15.8787 16.9735 15.9057 16.9218 15.9184 16.8656C15.931 16.8094 15.929 16.7508 15.9125 16.6957L15.2832 14.1211Z" fill="white" stroke="#CDCDCD" stroke-width="1.5"/>
</svg>