<svg width="22" height="26" viewBox="0 0 22 26" fill="none" xmlns="http://www.w3.org/2000/svg">
<path fill-rule="evenodd" clip-rule="evenodd" d="M12.4135 22.5833C12.6559 22.5833 12.8797 22.4532 12.9998 22.2426L17.8793 13.6774C18.5261 12.542 18.7975 11.2313 18.6548 9.93236L18.1398 5.24586C18.0482 4.41198 17.3936 3.7515 16.5606 3.65234L13.4732 3.28513C11.4351 3.04261 9.36866 3.2529 7.42106 3.90069C6.45914 4.2205 5.68885 4.95055 5.31756 5.8938L2.83256 12.2093C2.77175 12.3635 2.72975 12.5247 2.70743 12.6892C2.51902 14.0777 3.73439 15.249 5.115 15.0091L10.0964 14.144C11.6699 13.8707 13.0289 15.2592 12.7218 16.8266L11.7514 21.7789C11.6698 22.1956 11.9889 22.5833 12.4135 22.5833ZM14.9004 23.3254C14.3914 24.219 13.442 24.7707 12.4135 24.7708C10.6119 24.7708 9.25841 23.1262 9.60477 21.3582L10.5751 16.4059C10.5794 16.3847 10.577 16.3718 10.5741 16.3625C10.5706 16.351 10.5632 16.3376 10.5509 16.3251C10.5388 16.3127 10.5256 16.305 10.5142 16.3011C10.505 16.298 10.492 16.2955 10.4707 16.2992L5.48935 17.1644C2.65114 17.6573 0.152289 15.2494 0.539768 12.3949C0.585706 12.0569 0.672039 11.7257 0.796872 11.4082L3.28202 5.09273C3.89058 3.54631 5.15364 2.34946 6.73068 1.8249C8.98352 1.07561 11.374 0.832502 13.7316 1.11294L16.819 1.48015C18.6626 1.69948 20.1114 3.16131 20.3142 5.00684L20.8292 9.69348C21.0223 11.4508 20.6551 13.2241 19.78 14.7603L14.9004 23.3254Z" fill="#CDCDCD"/>
<path d="M12.9998 22.2426L13.4342 22.4901L13.4342 22.4901L12.9998 22.2426ZM17.8793 13.6774L17.4448 13.4298L17.4448 13.4299L17.8793 13.6774ZM18.6548 9.93236L19.1518 9.87775L19.1518 9.87774L18.6548 9.93236ZM18.1398 5.24586L18.6368 5.19124L18.6368 5.19124L18.1398 5.24586ZM16.5606 3.65234L16.6197 3.15584L16.6196 3.15584L16.5606 3.65234ZM13.4732 3.28513L13.4141 3.78163L13.4142 3.78163L13.4732 3.28513ZM7.42106 3.90069L7.57881 4.37515L7.57886 4.37514L7.42106 3.90069ZM5.31756 5.8938L4.85231 5.71066L4.85228 5.71072L5.31756 5.8938ZM2.83256 12.2093L3.29773 12.3926L3.29784 12.3923L2.83256 12.2093ZM2.70743 12.6892L3.20289 12.7564L3.2029 12.7564L2.70743 12.6892ZM5.115 15.0091L5.02944 14.5165L5.0294 14.5165L5.115 15.0091ZM10.0964 14.144L10.1819 14.6366L10.1819 14.6366L10.0964 14.144ZM12.7218 16.8266L12.2311 16.7304L12.2311 16.7304L12.7218 16.8266ZM11.7514 21.7789L12.2421 21.875L12.2421 21.875L11.7514 21.7789ZM14.9004 23.3254L14.466 23.0779L14.466 23.0779L14.9004 23.3254ZM12.4135 24.7708L12.4135 25.2708L12.4135 25.2708L12.4135 24.7708ZM9.60477 21.3582L9.1141 21.2621L9.11409 21.2621L9.60477 21.3582ZM10.5751 16.4059L10.0848 16.3082L10.0845 16.3098L10.5751 16.4059ZM10.5741 16.3625L10.0959 16.5085L10.097 16.512L10.5741 16.3625ZM10.5509 16.3251L10.1924 16.6736L10.1945 16.6757L10.5509 16.3251ZM10.5142 16.3011L10.3534 16.7746L10.3539 16.7747L10.5142 16.3011ZM10.4707 16.2992L10.5563 16.7918L10.5564 16.7918L10.4707 16.2992ZM5.48935 17.1644L5.57491 17.657L5.57491 17.657L5.48935 17.1644ZM0.539768 12.3949L0.0443219 12.3276L0.0443119 12.3276L0.539768 12.3949ZM0.796872 11.4082L0.331599 11.2251L0.331551 11.2252L0.796872 11.4082ZM3.28202 5.09273L2.81675 4.90963L2.81674 4.90964L3.28202 5.09273ZM6.73068 1.8249L6.57288 1.35045L6.57287 1.35046L6.73068 1.8249ZM13.7316 1.11294L13.6725 1.60944L13.6725 1.60944L13.7316 1.11294ZM16.819 1.48015L16.878 0.983648L16.878 0.983646L16.819 1.48015ZM20.3142 5.00684L19.8172 5.06145L19.8172 5.06145L20.3142 5.00684ZM20.8292 9.69348L20.3322 9.74809L20.3322 9.7481L20.8292 9.69348ZM19.78 14.7603L20.2144 15.0078L20.2144 15.0078L19.78 14.7603ZM12.4135 23.0833C12.8355 23.0833 13.2252 22.8568 13.4342 22.4901L12.5653 21.995C12.5343 22.0495 12.4763 22.0833 12.4135 22.0833V23.0833ZM13.4342 22.4901L18.3137 13.9249L17.4448 13.4299L12.5653 21.9951L13.4342 22.4901ZM18.3137 13.9249C19.0127 12.698 19.3061 11.2815 19.1518 9.87775L18.1578 9.98697C18.289 11.1811 18.0395 12.3861 17.4448 13.4298L18.3137 13.9249ZM19.1518 9.87774L18.6368 5.19124L17.6428 5.30047L18.1578 9.98697L19.1518 9.87774ZM18.6368 5.19124C18.5198 4.12612 17.6836 3.2825 16.6197 3.15584L16.5015 4.14883C17.1035 4.2205 17.5766 4.69784 17.6428 5.30048L18.6368 5.19124ZM16.6196 3.15584L13.5323 2.78863L13.4142 3.78163L16.5015 4.14884L16.6196 3.15584ZM13.5323 2.78863C11.4211 2.53742 9.28062 2.75525 7.26325 3.42625L7.57886 4.37514C9.4567 3.75055 11.4491 3.5478 13.4141 3.78163L13.5323 2.78863ZM7.26331 3.42623C6.16072 3.79281 5.27784 4.6296 4.85231 5.71066L5.78281 6.07693C6.09986 5.27149 6.75757 4.6482 7.57881 4.37515L7.26331 3.42623ZM4.85228 5.71072L2.36728 12.0262L3.29784 12.3923L5.78284 6.07687L4.85228 5.71072ZM2.36739 12.0259C2.29182 12.2176 2.23967 12.4178 2.21197 12.622L3.2029 12.7564C3.21982 12.6316 3.25167 12.5095 3.29773 12.3926L2.36739 12.0259ZM2.21198 12.622C1.9781 14.3454 3.48673 15.7995 5.20059 15.5017L5.0294 14.5165C3.98205 14.6985 3.05994 13.8099 3.20289 12.7564L2.21198 12.622ZM5.20055 15.5017L10.1819 14.6366L10.0108 13.6514L5.02944 14.5165L5.20055 15.5017ZM10.1819 14.6366C11.4101 14.4233 12.4709 15.5071 12.2311 16.7304L13.2125 16.9227C13.587 15.0113 11.9297 13.3181 10.0108 13.6514L10.1819 14.6366ZM12.2311 16.7304L11.2608 21.6827L12.2421 21.875L13.2125 16.9227L12.2311 16.7304ZM11.2608 21.6827C11.1186 22.4083 11.6742 23.0833 12.4135 23.0833V22.0833C12.3036 22.0833 12.221 21.9829 12.2421 21.875L11.2608 21.6827ZM14.466 23.0779C14.0458 23.8154 13.2623 24.2707 12.4135 24.2708L12.4135 25.2708C13.6216 25.2707 14.7369 24.6226 15.3349 23.5729L14.466 23.0779ZM12.4135 24.2708C10.9266 24.2708 9.80958 22.9135 10.0954 21.4544L9.11409 21.2621C8.70724 23.3389 10.2971 25.2708 12.4135 25.2708L12.4135 24.2708ZM10.0954 21.4544L11.0658 16.5021L10.0845 16.3098L9.1141 21.2621L10.0954 21.4544ZM11.0655 16.5037C11.0869 16.3963 11.078 16.2983 11.0512 16.2129L10.097 16.512C10.089 16.4866 10.0807 16.4513 10.0782 16.4094C10.0758 16.3691 10.0795 16.3346 10.0848 16.3082L11.0655 16.5037ZM11.0523 16.2164C11.0241 16.1241 10.9732 16.0414 10.9074 15.9745L10.1945 16.6757C10.1532 16.6337 10.1171 16.5779 10.0959 16.5085L11.0523 16.2164ZM10.9095 15.9766C10.8427 15.9079 10.7616 15.857 10.6745 15.8275L10.3539 16.7747C10.2895 16.7529 10.235 16.7174 10.1924 16.6736L10.9095 15.9766ZM10.675 15.8277C10.5871 15.7978 10.4893 15.7885 10.385 15.8066L10.5564 16.7918C10.5309 16.7962 10.4973 16.7992 10.4578 16.7961C10.4167 16.7928 10.3811 16.784 10.3534 16.7746L10.675 15.8277ZM10.3852 15.8066L5.40379 16.6718L5.57491 17.657L10.5563 16.7918L10.3852 15.8066ZM5.40379 16.6718C2.89875 17.1068 0.693231 14.9816 1.03522 12.4622L0.0443119 12.3276C-0.388653 15.5173 2.40354 18.2078 5.57491 17.657L5.40379 16.6718ZM1.03521 12.4622C1.07576 12.1638 1.15197 11.8715 1.26219 11.5912L0.331551 11.2252C0.192109 11.5799 0.0956493 11.9499 0.0443219 12.3276L1.03521 12.4622ZM1.26215 11.5913L3.74729 5.27582L2.81674 4.90964L0.331599 11.2251L1.26215 11.5913ZM3.74729 5.27583C4.30159 3.86729 5.45204 2.77714 6.8885 2.29934L6.57287 1.35046C4.85525 1.92178 3.47957 3.22534 2.81675 4.90963L3.74729 5.27583ZM6.88849 2.29934C9.07153 1.57326 11.388 1.33769 13.6725 1.60944L13.7907 0.616439C11.36 0.327315 8.8955 0.577949 6.57288 1.35045L6.88849 2.29934ZM13.6725 1.60944L16.7599 1.97665L16.878 0.983646L13.7907 0.616439L13.6725 1.60944ZM16.7599 1.97665C18.3725 2.1685 19.6398 3.44717 19.8172 5.06145L20.8112 4.95222C20.583 2.87546 18.9527 1.23046 16.878 0.983648L16.7599 1.97665ZM19.8172 5.06145L20.3322 9.74809L21.3262 9.63887L20.8112 4.95222L19.8172 5.06145ZM20.3322 9.7481C20.5138 11.4006 20.1685 13.0682 19.3455 14.5128L20.2144 15.0078C21.1417 13.38 21.5308 11.5009 21.3262 9.63886L20.3322 9.7481ZM19.3455 14.5128L14.466 23.0779L15.3349 23.5729L20.2144 15.0078L19.3455 14.5128Z" fill="white"/>
</svg>