<svg width="21" height="24" viewBox="0 0 21 24" fill="none" xmlns="http://www.w3.org/2000/svg">
<path fill-rule="evenodd" clip-rule="evenodd" d="M8.96588 2.98218C8.7235 2.98218 8.49965 3.10853 8.37963 3.31314L3.50012 11.6336C2.8533 12.7365 2.58186 14.0098 2.72459 15.2716L3.23959 19.8242C3.33123 20.6343 3.98583 21.2759 4.81882 21.3722L7.90618 21.7289C9.94427 21.9645 12.0107 21.7602 13.9583 21.131C14.9203 20.8203 15.6905 20.1111 16.0618 19.1948L18.5468 13.0598C18.6076 12.9099 18.6496 12.7534 18.672 12.5936C18.8604 11.2447 17.645 10.1069 16.2644 10.3399L11.283 11.1803C9.70948 11.4458 8.35046 10.097 8.65759 8.57438L9.62796 3.76358C9.70963 3.35874 9.39054 2.98218 8.96588 2.98218ZM6.47897 2.26125C6.98804 1.39319 7.93742 0.857192 8.96588 0.857178C10.7675 0.857164 12.121 2.45472 11.7746 4.17219L10.8043 8.98299C10.8 9.00361 10.8024 9.0162 10.8053 9.02524C10.8088 9.03637 10.8162 9.04942 10.8285 9.06152C10.8406 9.07362 10.8538 9.08107 10.8652 9.08481C10.8744 9.08784 10.8874 9.09028 10.9087 9.08668L15.89 8.24621C18.7283 7.76735 21.2271 10.1065 20.8396 12.8794C20.7937 13.2078 20.7074 13.5295 20.5825 13.838L18.0974 19.973C17.4888 21.4752 16.2258 22.6379 14.6487 23.1474C12.3959 23.8753 10.0054 24.1115 7.64779 23.8391L4.56043 23.4823C2.71679 23.2693 1.26798 21.8492 1.06518 20.0564L0.550186 15.5037C0.357073 13.7966 0.724311 12.0739 1.59943 10.5816L6.47897 2.26125Z" fill="#3A75FD"/>
</svg>