<svg width="16" height="19" viewBox="0 0 16 19" fill="none" xmlns="http://www.w3.org/2000/svg">
<path d="M14.2073 7.90372L13.541 8.24802L13.541 8.24802L14.2073 7.90372ZM13.134 6.83039L13.4783 6.16409L13.4783 6.16409L13.134 6.83039ZM13.1734 17.732L12.8173 17.072L12.8173 17.072L13.1734 17.732ZM14.1865 16.719L13.5264 16.3629L13.5264 16.3629L14.1865 16.719ZM1.54984 16.719L2.20989 16.3629L2.20989 16.3629L1.54984 16.719ZM2.56286 17.732L2.919 17.072L2.919 17.072L2.56286 17.732ZM2.60233 6.83039L2.94663 7.49669L2.94663 7.49669L2.60233 6.83039ZM1.529 7.90372L2.1953 8.24802L2.1953 8.24802L1.529 7.90372ZM7.11816 12.0662C7.11816 12.4804 7.45395 12.8162 7.86816 12.8162C8.28238 12.8162 8.61816 12.4804 8.61816 12.0662H7.11816ZM8.61816 1.72974C8.61816 1.31552 8.28238 0.979736 7.86816 0.979736C7.45395 0.979736 7.11816 1.31552 7.11816 1.72974H8.61816ZM4.50915 3.71735C4.21204 4.00597 4.20516 4.48079 4.49378 4.7779C4.7824 5.07501 5.25722 5.08189 5.55433 4.79327L4.50915 3.71735ZM7.86809 1.5L8.39068 0.96204C8.09964 0.67932 7.63653 0.67932 7.3455 0.96204L7.86809 1.5ZM10.1818 4.79327C10.479 5.08189 10.9538 5.07501 11.2424 4.7779C11.531 4.48079 11.5241 4.00597 11.227 3.71735L10.1818 4.79327ZM0.5 10.5696V13.9569H2V10.5696H0.5ZM5.325 18.7819H10.4113V17.2819H5.325V18.7819ZM15.2363 13.9569V10.5696H13.7363V13.9569H15.2363ZM15.2363 10.5696C15.2363 9.87345 15.2369 9.30571 15.1989 8.84583C15.1601 8.37704 15.0774 7.95386 14.8736 7.55942L13.541 8.24802C13.6162 8.39351 13.673 8.59461 13.704 8.96943C13.7357 9.35317 13.7363 9.84839 13.7363 10.5696H15.2363ZM10.4681 7.30139C11.1893 7.30139 11.6845 7.30199 12.0683 7.33372C12.4431 7.36471 12.6442 7.42151 12.7897 7.49669L13.4783 6.16409C13.0838 5.96027 12.6607 5.87758 12.1919 5.83882C11.732 5.80079 11.1642 5.80139 10.4681 5.80139V7.30139ZM14.8736 7.55942C14.5643 6.96094 14.0768 6.47334 13.4783 6.16409L12.7897 7.49669C13.1119 7.66321 13.3745 7.92576 13.541 8.24802L14.8736 7.55942ZM10.4113 18.7819C11.1338 18.7819 11.723 18.7825 12.1996 18.7416C12.6858 18.7 13.1238 18.611 13.5296 18.3921L12.8173 17.072C12.6674 17.1529 12.4598 17.2138 12.0715 17.2471C11.6738 17.2812 11.1598 17.2819 10.4113 17.2819V18.7819ZM13.7363 13.9569C13.7363 14.7054 13.7357 15.2193 13.7016 15.6171C13.6683 16.0054 13.6073 16.2129 13.5264 16.3629L14.8465 17.0751C15.0654 16.6694 15.1544 16.2313 15.1961 15.7452C15.2369 15.2685 15.2363 14.6793 15.2363 13.9569H13.7363ZM13.5296 18.3921C14.0876 18.091 14.5454 17.6332 14.8465 17.0751L13.5264 16.3629C13.3643 16.6633 13.1178 16.9098 12.8173 17.072L13.5296 18.3921ZM0.5 13.9569C0.5 14.6793 0.499358 15.2685 0.540221 15.7452C0.581893 16.2313 0.670856 16.6694 0.889794 17.0751L2.20989 16.3629C2.12899 16.2129 2.06803 16.0054 2.03474 15.6171C2.00064 15.2194 2 14.7054 2 13.9569H0.5ZM5.325 17.2819C4.57651 17.2819 4.06251 17.2812 3.66477 17.2471C3.27647 17.2138 3.06894 17.1529 2.919 17.072L2.20672 18.3921C2.61248 18.611 3.05055 18.7 3.53665 18.7416C4.01332 18.7825 4.60254 18.7819 5.325 18.7819V17.2819ZM0.889794 17.0751C1.1909 17.6332 1.64867 18.091 2.20672 18.3921L2.919 17.072C2.61851 16.9098 2.37202 16.6633 2.20989 16.3629L0.889794 17.0751ZM5.26816 5.80139C4.57206 5.80139 4.00432 5.80079 3.54444 5.83882C3.07565 5.87758 2.65247 5.96027 2.25803 6.16409L2.94663 7.49669C3.09212 7.42151 3.29322 7.36471 3.66804 7.33372C4.05178 7.30199 4.547 7.30139 5.26816 7.30139V5.80139ZM2 10.5696C2 9.84839 2.0006 9.35317 2.03232 8.96943C2.06331 8.59461 2.12012 8.39351 2.1953 8.24802L0.862695 7.55942C0.658876 7.95386 0.576184 8.37704 0.537425 8.84583C0.499403 9.30571 0.5 9.87345 0.5 10.5696H2ZM2.25803 6.16409C1.65955 6.47334 1.17195 6.96094 0.862695 7.55942L2.1953 8.24802C2.36182 7.92576 2.62437 7.66321 2.94663 7.49669L2.25803 6.16409ZM8.61816 12.0662V1.72974H7.11816V12.0662H8.61816ZM5.55433 4.79327L8.39068 2.03796L7.3455 0.96204L4.50915 3.71735L5.55433 4.79327ZM7.3455 2.03796L10.1818 4.79327L11.227 3.71735L8.39068 0.96204L7.3455 2.03796Z" fill="#CDCDCD"/>
</svg>